<?xml version="1.0" encoding="iso-8859-1"?>
<!-- Uploaded to: SVG Repo, www.svgrepo.com, Generator: SVG Repo Mixer Tools -->
<!DOCTYPE svg PUBLIC "-//W3C//DTD SVG 1.1//EN" "http://www.w3.org/Graphics/SVG/1.1/DTD/svg11.dtd">
<svg fill="#000000" version="1.1" id="Capa_1" xmlns="http://www.w3.org/2000/svg" xmlns:xlink="http://www.w3.org/1999/xlink" 
	 width="800px" height="800px" viewBox="0 0 96.766 96.767"
	 xml:space="preserve">
<g>
	<g>
		<path d="M30.237,3.464l7.35-3.454C34.649,0.069,32.026,1.393,30.237,3.464z"/>
		<path d="M42.637,1.262l-8.02,3.77l9.715-2.572C43.809,2.006,43.244,1.602,42.637,1.262z"/>
		<path d="M25.375,9.332c-0.098,0.212-0.184,0.416-0.26,0.603c-0.408,0.993-0.547,1.328-1.92,1.58l0.533,2.906
			c2.955-0.542,3.629-2.171,4.117-3.36c0.012-0.026,0.02-0.042,0.027-0.064c0.512,5.034,4.744,8.965,9.91,8.965
			c5.514,0,9.98-4.468,9.98-9.98c0-1.707-0.432-3.313-1.184-4.719L29.033,9.906l-0.201-2.155l5.785-2.719l-5.893,1.56h-0.001
			l-0.35,0.093c-0.004,0.011-0.006,0.021-0.01,0.031c-0.393,0.116-1.004,0.251-1.324,0.135c-0.92-0.337-1.971-1.487-2.293-2.511
			L21.93,5.225C22.455,6.891,23.844,8.519,25.375,9.332z"/>
		<path d="M32.869,96.451c2.529,0,4.578-2.051,4.578-4.58v-1.51l-9.15,1.575C28.333,94.436,30.363,96.451,32.869,96.451z"/>
		<polygon points="37.447,76.615 28.289,80.464 28.289,81.591 37.447,80.304 		"/>
		<path d="M75.854,23.925v-3.022h0.652c1.225,0,2.213-0.991,2.213-2.214V8.035c0-1.222-0.988-2.213-2.213-2.213h-1.744
			c0.018-0.168,0.027-0.344,0.027-0.527c0-0.135-0.01-0.263-0.018-0.39h0.461c1.596,0,2.895-1.298,2.895-2.892h-0.986
			c0,1.052-0.857,1.907-1.908,1.907h-0.654c-0.225-0.637-0.618-1.025-1.104-1.025c-0.483,0-0.877,0.388-1.104,1.025h-7.387V0h-2.955
			v3.92h-10.18c-1.053,0-1.908-0.855-1.908-1.907h-0.984c0,1.594,1.297,2.892,2.893,2.892H62.03v32.407
			c-6.297-2.289-8.726-5.428-11.273-8.739c-1.764-2.29-5.115-5.945-10.484-8.034l-2.489,2.504l-2.41-2.531
			c-0.006,0.002-0.016,0.003-0.025,0.004c-1.271,0.305-18.973,6.689-16.412,30.672c0.021,0.211,0.066,0.411,0.119,0.608
			l-1.008,0.043l0.598,1.983l2.113,0.276c0.555,0.341,1.199,0.536,1.879,0.563v36.037h-0.346v1.896
			c-0.572,0.433-0.947,1.114-0.947,1.888v1.861h4.748v-1.861c0-0.772-0.377-1.453-0.949-1.888v-1.896h-0.432V54.164
			c1.285-0.736,2.094-2.176,1.938-3.747c-0.586-5.861-0.164-9.963,0.92-13.002c0,0,0,10.788,0,13.831s0.717,3.522,0.717,3.522
			l0.002,23.886l9.16-3.849l-0.002-14.776c0.182,0.008,0.363,0.022,0.545,0.022c0.037,0,0.07-0.004,0.107-0.004v31.823
			c0,2.529,2.049,4.58,4.578,4.58s4.58-2.051,4.58-4.58V54.996c0,0,0.744-0.621,0.744-3.75V37.362
			c2.785,2.922,6.703,5.863,13.438,7.926c0.195,0.06,0.394,0.103,0.59,0.13v41.076h-1.68c-3.131,0-5.807,1.951-6.896,4.697
			c-1.17,0.356-2.028,1.433-2.028,2.719c0,1.578,1.276,2.856,2.854,2.856c1.576,0,2.855-1.278,2.855-2.856
			c0-0.756-0.301-1.44-0.779-1.952c0.728-1.48,2.234-2.513,3.994-2.513h5.598H67c1.76,0,3.268,1.032,3.993,2.513
			c-0.479,0.511-0.778,1.196-0.778,1.952c0,1.578,1.276,2.856,2.854,2.856c1.576,0,2.854-1.278,2.854-2.856
			c0-1.287-0.856-2.362-2.026-2.719c-1.091-2.748-3.769-4.697-6.896-4.697h-0.926h-0.84h-0.252V44.606
			c0.59-0.47,1.058-1.11,1.293-1.888c0.172-0.562,0.199-1.132,0.121-1.679c2.082,0.438,4.383,1.058,5.355,1.37
			c0.854,0.28,1.666,0.419,2.412,0.419c0.965,0,1.818-0.233,2.5-0.694c1.09-0.735,1.725-2.033,1.836-3.753
			c0.172-2.399-0.703-4.294-1.549-6.125c-0.459-0.995-0.932-2.024-1.234-3.123c-0.373-1.35-0.613-3.641-0.562-5.208H75.854z
			 M73.52,3.87c0.002,0.006,0.016,0.036,0.021,0.05h-0.062C73.493,3.906,73.508,3.877,73.52,3.87z M73.172,4.905h0.605
			c0.012,0.125,0.026,0.244,0.026,0.39c0,0.195-0.014,0.37-0.034,0.527h-0.591c-0.021-0.157-0.037-0.332-0.037-0.527
			C73.143,5.149,73.161,5.03,73.172,4.905z M76.397,32.511c0.853,1.843,1.654,3.584,1.496,5.828c-0.1,1.549-0.629,2.656-1.566,3.29
			c-1.057,0.712-2.61,0.783-4.387,0.201c-0.723-0.231-3.338-0.955-5.686-1.436c-0.232-0.718-0.674-1.358-1.271-1.835V4.905h7.195
			c-0.01,0.127-0.02,0.255-0.02,0.39c0,0.184,0.01,0.359,0.026,0.527h-1.741c-1.226,0-2.213,0.991-2.213,2.213v10.654
			c0,1.223,0.987,2.214,2.213,2.214h0.612v1.333h1.681v-1.333h1.434v3.022h0.375c-0.049,1.622,0.199,3.978,0.582,5.369
			C75.444,30.441,75.928,31.494,76.397,32.511z M73.569,15.779c-1.287,0-2.328-1.042-2.328-2.328c0-1.286,2.328-4.929,2.328-4.929
			s2.326,3.644,2.326,4.929C75.895,14.736,74.854,15.779,73.569,15.779z"/>
		<polygon points="28.289,90.129 37.447,88.553 37.447,87.384 28.289,86.244 		"/>
		<polygon points="28.289,83.4 28.289,84.436 37.447,85.574 37.447,82.113 		"/>
	</g>
</g>
</svg>